name D:\school\WTK\thesis\model\3dpredictsim\Results\MidTarsalJoint\Fal_s1_bCst_PF_linear_ls150_MT_nl_signed_lin_MTP_T5_ig24_300_10.mot
datacolumns 128
datarows 4
range 0.00000000 0.03483317
endheader
time	pelvis_tilt	pelvis_list	pelvis_rotation	pelvis_tx	pelvis_ty	pelvis_tz	hip_flexion_l	hip_adduction_l	hip_rotation_l	hip_flexion_r	hip_adduction_r	hip_rotation_r	knee_angle_l	knee_angle_r	ankle_angle_l	ankle_angle_r	subtalar_angle_l	subtalar_angle_r	tmt_angle_l	tmt_angle_r	mtp_angle_l	mtp_angle_r	lumbar_extension	lumbar_bending	lumbar_rotation	arm_flex_l	arm_add_l	arm_rot_l	arm_flex_r	arm_add_r	arm_rot_r	elbow_flex_l	elbow_flex_r	pro_sup_l	pro_sup_r	glut_med1_l/activation	glut_med2_l/activation	glut_med3_l/activation	glut_min1_l/activation	glut_min2_l/activation	glut_min3_l/activation	semimem_l/activation	semiten_l/activation	bifemlh_l/activation	bifemsh_l/activation	sar_l/activation	add_long_l/activation	add_brev_l/activation	add_mag1_l/activation	add_mag2_l/activation	add_mag3_l/activation	tfl_l/activation	pect_l/activation	grac_l/activation	glut_max1_l/activation	glut_max2_l/activation	glut_max3_l/activation	iliacus_l/activation	psoas_l/activation	quad_fem_l/activation	gem_l/activation	peri_l/activation	rect_fem_l/activation	vas_med_l/activation	vas_int_l/activation	vas_lat_l/activation	med_gas_l/activation	lat_gas_l/activation	soleus_l/activation	tib_post_l/activation	flex_dig_l/activation	flex_hal_l/activation	tib_ant_l/activation	per_brev_l/activation	per_long_l/activation	per_tert_l/activation	ext_dig_l/activation	ext_hal_l/activation	ercspn_l/activation	intobl_l/activation	extobl_l/activation	glut_med1_r/activation	glut_med2_r/activation	glut_med3_r/activation	glut_min1_r/activation	glut_min2_r/activation	glut_min3_r/activation	semimem_r/activation	semiten_r/activation	bifemlh_r/activation	bifemsh_r/activation	sar_r/activation	add_long_r/activation	add_brev_r/activation	add_mag1_r/activation	add_mag2_r/activation	add_mag3_r/activation	tfl_r/activation	pect_r/activation	grac_r/activation	glut_max1_r/activation	glut_max2_r/activation	glut_max3_r/activation	iliacus_r/activation	psoas_r/activation	quad_fem_r/activation	gem_r/activation	peri_r/activation	rect_fem_r/activation	vas_med_r/activation	vas_int_r/activation	vas_lat_r/activation	med_gas_r/activation	lat_gas_r/activation	soleus_r/activation	tib_post_r/activation	flex_dig_r/activation	flex_hal_r/activation	tib_ant_r/activation	per_brev_r/activation	per_long_r/activation	per_tert_r/activation	ext_dig_r/activation	ext_hal_r/activation	ercspn_r/activation	intobl_r/activation	extobl_r/activation	
          0.00000000	         -2.93003233	         -2.15635583	          5.92106705	          0.00000000	          0.91929148	         -0.00262238	        -16.21177100	         -1.21963301	          6.63684404	         28.99122654	          3.26378359	         -3.21291022	         -9.94895845	         -9.72450492	         -3.06751284	          6.04454355	         10.74144651	         -3.86184403	          4.29165772	         -1.85860124	         16.31942249	          5.40702163	         -1.74364709	          0.32061211	         -2.22732447	          3.96500397	        -13.45225807	         14.71909145	         -6.62840897	        -13.45857332	          4.67281476	         38.43885063	         18.14314220	         86.51662706	         86.51662706	          0.21364937	          0.10145775	          0.07040561	          0.28504587	          0.18499695	          0.10553646	          0.05000397	          0.05000057	          0.05000030	          0.05000694	          0.10274296	          0.11490789	          0.07764643	          0.05000311	          0.05000441	          0.05000099	          0.31873429	          0.10500694	          0.05014060	          0.05000182	          0.05000107	          0.05000095	          0.38964505	          0.63231684	          0.05000022	          0.05000074	          0.05109816	          0.32838588	          0.05000035	          0.05000035	          0.05000031	          0.24991584	          0.34474642	          0.32190074	          0.25619832	          0.23620125	          0.31657563	          0.05000004	          0.05967646	          0.13423154	          0.05000037	          0.05000008	          0.05000033	          0.05000004	          0.05000019	          0.06989970	          0.05967588	          0.05967590	          0.05000030	          0.05967608	          0.05967604	          0.05529342	          0.18016031	          0.09537923	          0.18650943	          0.07471854	          0.05000041	          0.16558902	          0.29670086	          0.14574019	          0.24018920	          0.12060744	          0.05000031	          0.05091820	          0.15356347	          0.05000117	          0.05000728	          0.17326322	          0.05967568	          0.05000319	          0.28592720	          0.30342671	          0.13922735	          0.05000070	          0.10367064	          0.10191692	          0.09281504	          0.07153395	          0.07392200	          0.06282383	          0.05000010	          0.05968332	          0.05000089	          0.49826874	          0.25052712	          0.16671944	          0.16153180	          0.47920924	          0.24423491	          0.05286026	          0.11921996	          0.09919317	
          0.01161106	         -2.92876838	         -2.23870185	          6.19284134	          0.01775111	          0.91839838	         -0.00243620	        -16.04140215	         -1.53265611	          6.44792265	         28.34375039	          3.66631402	         -2.97335615	        -11.91840936	        -10.23307141	         -3.75642860	          5.43448997	         11.74482223	         -4.23758303	          3.21642926	         -1.96340725	         18.24347293	          5.29370841	         -1.51832741	          0.51581167	         -2.30179091	          3.63354239	        -13.45812318	         15.06764942	         -7.57267542	        -13.44992224	          4.51534835	         39.65313912	         17.73424822	         86.51662706	         86.51662706	          0.17900825	          0.08500747	          0.05967719	          0.23882860	          0.15500160	          0.08842486	          0.05001405	          0.05000357	          0.05012259	          0.05000034	          0.08608441	          0.20239916	          0.06505856	          0.11845203	          0.05967969	          0.05967844	          0.26705493	          0.08798271	          0.05012647	          0.05666544	          0.05967610	          0.05967751	          0.32646789	          0.57892275	          0.06235560	          0.05970376	          0.05130866	          0.28498721	          0.09509036	          0.10576084	          0.12838516	          0.20939436	          0.28884910	          0.26970760	          0.21465838	          0.19790403	          0.26524640	          0.05000014	          0.05000061	          0.15187835	          0.05000024	          0.05000019	          0.05000038	          0.06587957	          0.07122434	          0.07122436	          0.05000005	          0.05000014	          0.12418854	          0.05000021	          0.05000021	          0.05000022	          0.15094933	          0.07991459	          0.15626878	          0.06260396	          0.05967563	          0.13874059	          0.34000660	          0.35362278	          0.24311961	          0.12885354	          0.05000096	          0.07152669	          0.17037493	          0.06304578	          0.11089558	          0.15827827	          0.05000036	          0.05000223	          0.55898759	          0.25422903	          0.11665310	          0.05967575	          0.08686211	          0.08539282	          0.07776658	          0.06961294	          0.07122385	          0.06269763	          0.05967595	          0.05000701	          0.05967243	          0.49745491	          0.28830012	          0.21041185	          0.13534117	          0.43033119	          0.20463471	          0.05000002	          0.09988958	          0.08310995	
          0.02322211	         -2.92275836	         -2.32749893	          6.42777621	          0.03581350	          0.91747275	         -0.00227765	        -15.81900252	         -1.84333262	          6.25085422	         27.56576256	          3.94388610	         -2.70799274	        -13.95909150	        -10.81753520	         -4.57595485	          4.92815263	         12.67032190	         -4.63085568	          1.98058793	         -2.14698525	         20.18464470	          5.32830593	         -1.27074992	          0.72579242	         -2.36322480	          3.22553681	        -13.45777543	         15.34126605	         -8.53233215	        -13.45264708	          4.43367859	         40.82884087	         17.34961966	         86.51662706	         86.51662706	          0.29802800	          0.07122444	          0.05000125	          0.25908580	          0.12986989	          0.07408778	          0.05000529	          0.05000042	          0.05000028	          0.05000169	          0.07212717	          0.16958223	          0.05451105	          0.09924639	          0.05000411	          0.05000247	          0.31728569	          0.07424222	          0.05000649	          0.05000302	          0.05000237	          0.05000198	          0.27353437	          0.54623218	          0.05224536	          0.05002385	          0.05000119	          0.25475946	          0.07967249	          0.08861286	          0.10756884	          0.17544305	          0.24201497	          0.22597707	          0.17985363	          0.16581601	          0.22223940	          0.07820835	          0.14359432	          0.14915583	          0.06643337	          0.09701384	          0.05000664	          0.06217353	          0.05967599	          0.05967602	          0.24879284	          0.27439044	          0.31959913	          0.46448349	          0.27555094	          0.20054689	          0.12833280	          0.07963909	          0.13095317	          0.06913692	          0.05000136	          0.11624520	          0.28487785	          0.29628644	          0.20370088	          0.14641226	          0.05000074	          0.05993033	          0.14275095	          0.12168600	          0.13808411	          0.13650431	          0.05485179	          0.05000086	          0.46835312	          0.21300842	          0.22432631	          0.05000020	          0.07277850	          0.07154746	          0.06515770	          0.05832593	          0.05967567	          0.05253186	          0.05000024	          0.05000061	          0.05000088	          0.56451973	          0.33819613	          0.17629590	          0.39158379	          0.51043374	          0.18963863	          0.06427452	          0.11952650	          0.06963449	
          0.03483317	         -2.91431993	         -2.40820501	          6.62220890	          0.05393683	          0.91654782	         -0.00208857	        -15.50231431	         -2.13559777	          6.07014337	         26.75503876	          4.18634045	         -2.44902671	        -16.12565728	        -11.35742030	         -5.47962975	          4.43436203	         13.52784017	         -5.02475705	          0.63478042	         -2.05017526	         21.93881605	          5.36503430	         -1.02794118	          0.93314620	         -2.41393512	          2.78605693	        -13.46467056	         15.57359618	         -9.45414430	        -13.45725005	          4.43015779	         41.94277489	         16.96338031	         86.51662706	         86.51662706	          0.24970580	          0.05967622	          0.05000140	          0.21707793	          0.10881288	          0.06207528	          0.05000346	          0.05000045	          0.05000064	          0.05000019	          0.06043269	          0.19636124	          0.12202495	          0.12063196	          0.06118104	          0.14451996	          0.26584165	          0.06220689	          0.05000173	          0.05002075	          0.05001572	          0.05011313	          0.22918342	          0.47939548	          0.05000788	          0.05001529	          0.05000086	          0.21345270	          0.11446895	          0.11371290	          0.10145848	          0.14699663	          0.20277456	          0.18933703	          0.15069212	          0.13893073	          0.18620553	          0.18159968	          0.12031201	          0.12497170	          0.35148923	          0.19739631	          0.10145635	          0.08118387	          0.05000013	          0.05000017	          0.36367363	          0.37274972	          0.40644726	          0.38917207	          0.23087353	          0.22848573	          0.10880851	          0.09648502	          0.11174110	          0.05792748	          0.05000182	          0.09739720	          0.23868769	          0.24824685	          0.17067523	          0.17533887	          0.05000061	          0.05021392	          0.11960581	          0.24785413	          0.20690839	          0.18049107	          0.05000011	          0.05000014	          0.39241423	          0.17847129	          0.18795445	          0.05000015	          0.10920985	          0.11364048	          0.09273974	          0.05000006	          0.05000014	          0.05000002	          0.05000004	          0.05000027	          0.05000021	          0.62928723	          0.31064371	          0.16480747	          0.59366987	          0.55837176	          0.31637502	          0.07792416	          0.10014642	          0.05834396	
